<svg width="35" height="30" viewBox="0 0 35 30" fill="none" xmlns="http://www.w3.org/2000/svg">
<path d="M32.8641 27.2864L31.65 8.4147H25.5843V6.89115C25.5843 3.0912 21.9779 0 17.5448 0C13.1117 0 9.50532 3.09135 9.50532 6.89115V8.4147H3.17715L2.13258 27.368L2.13152 27.4008C2.12294 28.0829 2.43917 28.7523 2.99865 29.2367C3.5583 29.7216 4.33582 30 5.1319 30H29.8683C30.6887 30 31.4832 29.7071 32.0476 29.196C32.6118 28.685 32.9095 27.989 32.8641 27.2864ZM11.6022 6.89115C11.6022 4.0824 14.2679 1.7973 17.5448 1.7973C20.8215 1.7973 23.4875 4.0824 23.4875 6.89115V8.4147H11.602V6.89115H11.6022ZM30.5246 27.9603C30.3543 28.1142 30.1152 28.2026 29.8681 28.2026H5.13173C4.89198 28.2026 4.65799 28.1188 4.48912 27.9724C4.32427 27.8299 4.2296 27.6339 4.22802 27.4329L5.17705 10.212H9.50497V12.4879C9.50497 12.9843 9.97432 13.3866 10.5534 13.3866C11.1325 13.3866 11.6018 12.9843 11.6018 12.4879V10.212H23.4873V12.4879C23.4873 12.9843 23.9566 13.3866 24.5357 13.3866C25.1148 13.3866 25.584 12.9843 25.584 12.4879V10.212H29.6651L30.7699 27.3855C30.7841 27.597 30.6945 27.8065 30.5246 27.9603Z" fill="black"/>
</svg>
