<svg width="54" height="56" viewBox="0 0 54 56" fill="none" xmlns="http://www.w3.org/2000/svg">
<path d="M27 44.464L26.352 43.904C12.42 32.144 8.64001 28 8.64001 21.28C8.64001 15.68 12.96 11.2 18.36 11.2C22.788 11.2 25.272 13.776 27 15.792C28.728 13.776 31.212 11.2 35.64 11.2C41.04 11.2 45.36 15.68 45.36 21.28C45.36 28 41.58 32.144 27.648 43.904L27 44.464ZM18.36 13.44C14.148 13.44 10.8 16.912 10.8 21.28C10.8 26.992 14.256 30.8 27 41.552C39.744 30.8 43.2 26.992 43.2 21.28C43.2 16.912 39.852 13.44 35.64 13.44C31.86 13.44 29.808 15.792 28.188 17.696L27 19.152L25.812 17.696C24.192 15.792 22.14 13.44 18.36 13.44Z" fill="#928F8F"/>
</svg>
