<svg width="45" height="43" viewBox="0 0 45 43" fill="none" xmlns="http://www.w3.org/2000/svg">
<path d="M22.5 34.142L21.96 33.712C10.35 24.682 7.19995 21.5 7.19995 16.34C7.19995 12.04 10.8 8.6 15.3 8.6C18.99 8.6 21.06 10.578 22.5 12.126C23.94 10.578 26.01 8.6 29.7 8.6C34.2 8.6 37.8 12.04 37.8 16.34C37.8 21.5 34.65 24.682 23.04 33.712L22.5 34.142ZM15.3 10.32C11.79 10.32 8.99995 12.986 8.99995 16.34C8.99995 20.726 11.88 23.65 22.5 31.906C33.12 23.65 36 20.726 36 16.34C36 12.986 33.21 10.32 29.7 10.32C26.55 10.32 24.84 12.126 23.49 13.588L22.5 14.706L21.51 13.588C20.16 12.126 18.45 10.32 15.3 10.32Z" fill="black"/>
</svg>
