<svg version="1.0" xmlns="http://www.w3.org/2000/svg" width="1365.333" height="1365.333" viewBox="0 0 1024 1024"><path d="M467.4 151c-3 1.1-3.7 3.9-1.9 6.6 1.8 2.8 4.7 3.1 6.9.8 1.9-1.8 2-2.8.6-5.3-1.2-2.4-3-3-5.6-2.1zM550.3 151.8c-1.5 1-1.9 3.2-.9 6 .6 1.9 1.4 2.3 3.9 2 2.7-.3 3.3-.8 3.5-3.3.5-4-3.3-6.8-6.5-4.7zM599.1 153.4c-.9 1.1-1 2-.1 3.5 1.4 2.8 5.6 2.8 6.5.1 1.3-4-3.8-6.8-6.4-3.6zM530.3 153.7c-1.8.7-1.6 2.8.3 4.4 1.4 1.1 1.8 1 2.9-.5 2.3-3.1.4-5.4-3.2-3.9zM299.6 161.7c-.5 1.1-.1 2.2.9 3 2.3 1.6 4.7.5 4.3-2.1-.4-2.7-4.3-3.4-5.2-.9zM607.5 162c-.4.7-.3 1.6.3 2.2 1.4 1.4 4.5.2 4-1.5-.6-1.6-3.4-2.1-4.3-.7zM573 164c-3.7 3.7.5 9.4 5.4 7.2 3.7-1.7 3.5-5.7-.4-7.7-2.8-1.4-3.1-1.4-5 .5zM539.3 163.8c-2.7.4-5.3 3.8-5.3 6.8 0 1.2.9 3.3 2.1 4.8 2.7 3.4 7.1 3.5 10.5.1 2.1-2.1 2.4-3.1 1.9-5.8-.4-1.8-.9-3.5-1.1-3.9-.7-1.1-5.8-2.4-8.1-2zM327.1 165.4c-1.7 2-.3 4.6 2.4 4.6 2.9 0 3.8-1.3 3-4-.7-2.3-3.7-2.6-5.4-.6z"/><path d="M564 167c0 .6.7 2.5 1.6 4.2 1.5 2.9 1.4 3.1-.7 5.4-3.1 3.3-3 8 .4 10.7 1.5 1.2 3.6 4.4 4.9 7.2 2.4 5.6 7.9 23.7 7.3 24.3-.2.2-2.4-.8-4.8-2.3-2.5-1.4-8.6-3.7-13.6-5-11.6-3.1-16.4-5.6-22.4-11.4-6-5.7-7.6-8.7-7-12.9 1-6.2-5.3-9.6-9.7-5.2-1.1 1.1-2 3.1-2 4.5 0 2.5 3.1 6.5 5 6.5 1.6 0 7 9.4 6 10.4-1.8 1.8-11.7-.4-15.6-3.5-4.1-3.3-6-3.6-9.1-1.4-4.7 3.3-2.6 11 3 10.5 12.7-1.1 26.1.5 41.2 5.1 15.7 4.7 23.3 8.4 30.2 14.4 7.1 6.2 9 9.7 10.7 19.8.9 4.8 2.5 10.5 3.6 12.7 1.1 2.2 1.9 4.4 1.6 4.8-.3.5-32.2.8-71 .8l-70.5-.1-2.8-2.6c-1.5-1.4-5.9-4.8-9.8-7.5-15-10.4-16.7-13-19-28-2.2-14.5-5-23.6-10.7-35.2-4.9-9.6-5.1-10.5-4-13.6 2-5.5-.5-9.6-5.7-9.6-4.5 0-6.7 7.4-3.3 10.8 4 4 15 28.9 15.2 34.4.1 2.4-2.7-.2-8.5-7.9-4.2-5.6-6.5-9.5-6.5-11.3 0-5.3-4.4-8.1-8.7-5.4-1.3.8-2.3 1.2-2.3.8 0-.4-.6-.1-1.4.5-2.9 2.4 1.3 9.5 6.3 10.6 1.7.4 4.2 2.9 7.6 7.6 9 12.7 11.6 16.9 17 27.7 5.3 10.7 8.5 14.5 17 20.7 7.1 5.2 8.2 6.5 6.5 7.5-1.9 1.2-2.7 1.2-23.3 0-10.6-.6-18-1.5-20.3-2.5-3.1-1.3-18.9-11.7-20.4-13.4-1.5-1.8-8.9-6.6-19.5-12.6-21.1-12-26.9-16.8-35.9-30-3-4.3-3.9-6.6-3.8-9.1.4-5.4 1.9-8.3 4.9-9.5l2.8-1.1-2.2-1.5c-1.5-1-2.3-2.6-2.3-4.4 0-1.9-.5-2.9-1.5-2.9-2.1 0-3.2 2.7-4 9.8-.4 3.4-1.1 6.5-1.6 6.8-1.7 1-4.9-6-4.9-10.9 0-4.1-.3-4.9-2.5-5.9-1.4-.6-2.8-2.3-3.1-3.7-1-4.6-1.3-5.1-3-5.1-1.4 0-1.5.7-1 4.4.4 2.7.3 4.7-.4 5.1-2.1 1.3-1.1 6.3 1.8 8.7 1.5 1.3 4.2 4.9 6 8 1.8 3.1 5.9 9.2 9.1 13.5 7.3 9.9 8.5 12 6.9 12.5-1.9.7-11.5-1.6-17.8-4.1-8.1-3.3-13.2-6.5-18.7-11.8-6.3-6-7.4-8-6.2-11.1 1.2-3.2-.6-5.4-4-5-4.3.5-3.8 3.8 1.8 11.3 2.8 3.7 5.1 7.6 5.1 8.6 0 1.1-.1 1.9-.2 1.9-.2 0-4.4-1.3-9.5-3-5-1.6-9.9-2.7-10.7-2.4-1.8.7-3.1 4.7-2.1 6.3.9 1.6 4.6 1.3 6.5-.4 1.6-1.4 2.3-1.4 7.6.6 3.3 1.2 7.1 3 8.6 4 1.4 1.1 4.8 2.2 7.5 2.5 2.6.4 5.3 1 5.8 1.4 1.7 1.3 15.6 5.8 26 8.4 9.6 2.4 13.6 3.8 21.5 7.4 5.2 2.4 11 6.1 11 7.1 0 .5-2 1.4-4.5 2.1-4.3 1.2-7.4 3.5-6.3 4.6.3.3 3.6 0 7.3-.7 8.9-1.5 13.3-.8 19.2 3.2 7.3 4.9 15.4 12 14.8 12.9-.3.5-3 1.4-5.9 2.1-4.2.9-6.5.9-10.3 0-5.2-1.3-25.5-13.5-29.4-17.7-2.9-3.2-7.6-5.7-8.9-4.9-.6.4-.9 1.8-.8 3.3.1 1.5-.4 3.7-1 4.8-1.7 3.1.7 4.8 5.5 4.1 3.2-.6 4.7 0 10.9 3.8 3.9 2.5 7.7 5.2 8.4 6 1.1 1.3.8 1.5-2.1 1.5-4.5 0-21-2.7-24.3-4-1.4-.5-2.6-1.6-2.6-2.3 0-2.2-3.4-4.7-6.3-4.7-5.5 0-7.7 7-3.6 11.1 1.6 1.6 2.8 1.9 5.4 1.5 2.1-.4 6.1.1 10.7 1.4 4 1.1 10.7 2.3 14.8 2.7 11.4.9 11.7 1.6 2.5 5.8-15.3 7.1-22.5 9.5-30.6 10.6-10.7 1.5-28.7.7-36.6-1.5-5.6-1.7-6.4-2.3-9.4-7-1.9-3-3.4-4.6-3.7-3.8-.2.8.1 1.9.7 2.5 1.4 1.4 1.5 5.7.1 5.7-.5 0-3.3-.9-6.2-2-6.4-2.4-8.4-1.1-3.1 2 2.1 1.3 5 3.5 6.6 4.8 2.2 2.1 3.8 2.6 9 2.8 7.1.2 14.7 2.2 14.7 3.8 0 2.1-18.7 13.8-23 14.3-2.7.4-4.7 1.4-6 3.1-3.3 4.2-2.3 5.7 4.7 6.7 4.6.6 5.2.5 5.8-1.4.7-2.3 10.3-9.5 22.6-17 8.3-5 9.1-5.3 18.5-6.2 5.5-.5 12.8-1.7 16.4-2.8 7.7-2.2 24.2-9.2 35.5-14.8 4.5-2.3 11.4-4.8 15.8-5.7 10.3-2.1 26.7-3.2 26.7-1.8 0 .5-2.2 3.9-5 7.4-2.7 3.4-10.2 13-16.5 21.3-39.5 51.4-63.5 81.9-65.1 82.8-.8.5-4.5 1.3-8.2 1.8-3.7.5-13.7 2.7-22.2 4.9-23.8 6-33.2 7.3-48.5 6.6-7.1-.4-13.9-.9-15.1-1.2-5.4-1.4-8.9 7.1-4.4 10.8 3.2 2.6 6 2.2 9.5-1.2l3.1-3 8.3.7 8.3.8-2.7 3c-1.4 1.6-3.8 4.5-5.2 6.3-1.5 1.9-4.3 4.1-6.2 5-3 1.4-3.6 2.3-3.9 5.3-.2 2.4.3 4.2 1.3 5.3 4 3.9 11.2 0 10.1-5.6-.5-2.5.1-3.7 4.5-8.3 8.7-9.2 12.7-11.1 34.1-16.6 22.2-5.7 29.8-6.9 29.8-4.8 0 1.3-7.8 11.9-25.7 35.3-7.8 10.2-6.1 9.3-31.3 16.2-24.2 6.7-25.9 7.3-52 19.7-13.4 6.3-22.5 9.5-25.6 9-3.6-.6-6.4 1.6-6.4 5.2 0 5.8 7 7.4 11.2 2.6 2.7-2.9 16.8-9.5 19.4-8.9 1.1.2.1 2.6-4.1 9.3-7 11.2-11 15.5-14.5 15.5-6.3 0-9.5 8.3-4.5 11.6 3.9 2.5 7.3 1.1 9.4-3.9 1-2.3 3.1-5.3 4.6-6.7 1.5-1.4 6.3-7.8 10.6-14.2 13.8-20.6 14.8-21.2 43.2-30.2 16.5-5.2 22.7-6.5 22.7-5 0 1.2-6.1 10.6-13.3 20.9-3.9 5.5-11.5 14.6-16.8 20.1-5.3 5.6-11.4 13.1-13.7 16.5-3.9 6.1-6.2 8.9-9.6 11.7-4 3.2.1 11 5.2 9.7 3.9-.9 4.6-2 4.5-6.7-.2-3.5.5-5.2 4.2-10.2 7.3-10 10.4-13.3 11.3-11.9.9 1.5-.5 19.3-1.8 22.8-.5 1.4-1.6 2.5-2.4 2.5-1.8 0-13.6 19-13.6 21.9 0 3.4 2.8 2.4 4.5-1.6 2.1-4.9 6.4-10.5 7.6-9.8.5.4.9 2.7 1 5.3 0 3.5.3 4.2.9 2.7.5-1.1.9-3.3.9-4.8.1-1.6 1.5-5.9 3.2-9.5 2.4-5.1 3.6-10.1 5.3-21.3 1.9-12.8 2.6-15.3 5.5-20 7.1-11.5 16.3-24 17.4-23.6 2.2.7 4.6 10 4.7 18.2.1 8.9-5.4 46.1-7.6 51.3-1.7 4-1.8 7.4-.2 9 1.5 1.5 6.1 1.5 7.6 0s1.5-5.3.1-7.6c-1.2-2-.5-11.6 1-14.1 1.5-2.3 2.7-.5 6.6 9.9l3.8 10.1-1.7 15.7c-1 8.6-2.4 17.5-3.2 19.8-1.6 4.6-1.1 6.9 1.8 8.5 4.5 2.4 8.9-3.1 6.8-8.5-1.3-3.5-1.3-8.2.1-16.5.6-3.6 1.3-8.1 1.5-9.9.5-3.2.6-3.3 2.4-1.7 1 .9 2.8 3.9 4 6.6 1.5 3.6 2.6 4.9 3.8 4.7 2.4-.4 3-9.9.7-11.8-.8-.7-1.5-1.8-1.5-2.6 0-.7-2.5-4-5.5-7.2-3.7-4.1-6.3-8-7.9-12.3-1.3-3.5-3.8-9.3-5.5-12.9-2.9-6.2-2.9-6.8-2.1-14 .5-4.1.9-9.9 1-12.8 0-3.8.4-5.3 1.3-5 .6.2 6.5 7.8 13 16.9 6.5 9 17.3 24 24 33.3 6.7 9.3 14.5 20.1 17.2 24 2.8 3.9 10.1 13.8 16.3 22.1 6.1 8.2 11.5 16.1 11.9 17.5.3 1.3-.3 7.6-1.5 14-1.2 6.3-2.4 13.5-2.8 16-.3 2.5-2.5 11.1-4.9 19.2-2.5 8.1-5.1 18.4-5.8 22.9-1.4 8.1-1.5 8.1-8.3 15-5.6 5.6-7.4 6.9-10 6.9-4.2 0-6 2.3-4.8 5.8 1.2 3.4 3.6 3.9 8.4 1.7 2.6-1.2 4.9-3.4 6.9-6.7 1.7-2.7 3.7-4.8 4.3-4.6 2.3.8 3 8.3 1.4 13.9-.9 2.9-1.4 5.4-1.2 5.7 1 .9 2.5-1 3.1-3.7.3-1.6 1.3-3.5 2.1-4.2 1.1-.9 1.7-.5 2.9 2.5.8 2 2.2 3.6 3 3.6 2.5 0 1.8-6.2-1.1-10.6-1.5-2.1-2.9-5.4-3.1-7.4-.9-7.3 5.7-36.8 8.2-36.3.5.1 2.1 4.1 3.6 9 1.4 4.8 3.6 11.3 4.7 14.2 1.5 3.9 2 6.6 1.6 9.3-.4 2.4-.2 4.3.6 5.3 1.5 1.8 6.1 2 7.8.3 1.9-1.9 1.4-6.8-.9-8.7-2.2-1.7-10-26.1-11.9-37.1-1.6-9.1 1.7-34.8 4.6-35.7 1.1-.4 33.5 44.4 41 56.6l3.9 6.4v13.6c0 10.6-.4 14.8-1.8 19.1-3.6 10.6-8.9 19.7-15.4 26.5-4 4.2-5.9 5.5-8.1 5.5-3.6 0-5.6 2.2-4.7 5 .9 2.7 4.9 2.6 6.9-.2.9-1.2 1.7-2 1.8-1.7.2.2.8 1.3 1.4 2.4 1.2 2.2 5.1 3.2 6.6 1.7.7-.7.5-2.1-.6-4.3-2.1-4.2-2-4.9.7-8.2 2-2.6 2.4-2.7 5.5-1.6 4.6 1.6 6.5-.2 6-5.5-.3-3 .3-5.8 2.5-10.4 1.6-3.4 3.2-6.2 3.7-6.2 1.9 0 3.5 7 3.4 14.5-.1 10.3-.9 13.2-3.7 14.1-1.2.4-2.5 1.2-2.9 1.8-2.7 4 2 9.8 6.1 7.6 2-1 3.9-5.5 2.8-6.6-.3-.3.4-3 1.4-6 4.2-11.8 3.3-22.8-2.7-33.1-2-3.4-2.4-5.5-2.4-11.8 0-5.7.3-7.6 1.3-7.3.6.3 5.3 6.1 10.2 13.1 5 6.9 11.1 15.2 13.6 18.5 3.6 4.8 5.1 7.9 7.3 15.7 2.8 10.2 6.4 18.2 9 20.4.9.8 1.6 1.9 1.6 2.6 0 .7 1.1 1.6 2.5 1.9 1.8.5 2.7 1.7 3.5 4.5 1.2 4.6 4 6 7.6 4 5.3-2.8 3.5-9.5-3.1-11.7-5.2-1.7-8.9-5.3-11.3-11.1-2.1-4.7-3.9-14.1-2.8-14.1 2.1 0 15 9.7 19.8 14.9 3.9 4.2 6.1 5.9 7.2 5.5 1.6-.6 1.8-1.1 2-5.4.1-2.8 1.1-2.9 10.4-1.7 6 .9 7.4-.9 1.5-1.8-7.7-1.3-10.4-2-10.4-3 0-1.1 5.2-2.8 11.8-3.9 3.9-.7 4.1-.6 5.1 2.3 1.3 3.8 4.3 5.4 7.5 4.2 3.6-1.4 5.1-7.3 2.5-9.9-1.9-1.9-16.3-1.4-25.2.8-4.3 1.1-9.5 2-11.5 2-4.8 0-16.5-7.2-25-15.3-8-7.8-18.8-22.1-16.9-22.5 2.9-.6 22.3 7 25.3 9.9 5.1 4.8 10.8 3.4 10.8-2.8 0-3.4-3-5.6-6.5-4.9-1.9.4-6.6-.9-14.5-4-19.6-7.5-21.7-8.5-25.2-11.8-5-4.7-15.1-17.7-14.5-18.7.3-.5 23.6-.9 52.5-.9h52.1l-.7 2.9c-.4 2-.1 3.4 1 4.5 1.9 1.9 2.1 1.9 4.6.6 2.3-1.3 2.5-3.3.4-5-.8-.7-1.5-1.6-1.5-2.1s6.9-.9 15.3-.9h15.3l5.9 4.3c3.3 2.4 9.4 6.4 13.5 8.9 18.5 11.2 24.8 15.9 34.5 25.9 10.3 10.5 15.3 14.3 26.5 19.9 3.6 1.8 7.9 4.8 9.6 6.6 1.8 1.9 4.1 3.4 5.2 3.4 3.2 0 6.5-3.3 6.5-6.5 0-3.6-2.6-5.5-7.5-5.5-4.3 0-6.6-1-18.3-8.1-8.2-4.9-20.5-15.2-19.4-16.3.3-.4 5.6-.9 11.6-1.3l11-.6 4.5 4.1c6.4 5.9 15.2 10.9 21.4 12.2 4.4.9 5.7 1.7 6.9 4 2.8 5.4 9.5 5.4 9.5 0 0-.5-1.4-2.3-3.2-3.9-1.8-1.7-2.9-3.4-2.5-3.8.5-.4 2.8-.8 5.2-.8 5.4-.1 6.8-1.2 2.9-2-1.6-.4-4.3-1-6-1.5-2-.5-4.6-.2-7.4.7-3.4 1.2-5.2 1.3-7.9.4-3.5-1-11.1-6.5-11.1-8 0-1.3 18.4.1 20.6 1.6 2.8 1.8 7 .3 8.5-3.1 1.5-3.2.6-5.3-2.6-6.8-2.2-1-3.2-.9-5.9.6-2.9 1.5-4.8 1.7-16.7 1-7.4-.5-14.3-.8-15.4-.7-1.1.1-7.7.5-14.7.9l-12.7.7-4.8-2.8c-13.2-7.8-33.5-21.7-32.7-22.5.5-.5 19.8-1 42.9-1l42-.2 9.5 3.5c5.2 1.9 16.3 6.8 24.5 10.8 8.3 4 19.1 8.9 24 10.9 5.6 2.3 9.4 4.4 10 5.7 2.9 5.8 7.7 7.1 11.5 3.1 4.5-4.8 1.7-10-5.6-10.2-3.7-.2-7.9-1.7-17.6-6.3-7.1-3.4-12.8-6.6-12.8-7.2 0-.5 1.8-2 3.9-3.3 2.2-1.3 6.6-3.9 9.8-5.8 5.2-3.2 6.6-3.5 14.6-3.8 4.8-.2 9.9-.1 11.3.2 2.2.6 2.5 1 1.9 3.7-1.2 5.3 4.3 9 7.9 5.3 1.9-1.9 2.1-8.7.4-10.2-.7-.5-5.3-2.2-10.1-3.7-7.6-2.3-8.6-2.9-7.6-4.1 1.7-2 6.7-4.6 10.4-5.4 2.5-.5 3.1-1.1 3.3-3.9.4-3.5-1.1-6.1-3.5-6.1-.8 0-2.8 1.3-4.4 2.9-5.6 5.6-30.6 22.4-42 28.1l-5.5 2.8-6-2.5c-3.2-1.4-8.7-3.7-12.1-5.1-3.9-1.6-6.3-3.2-6.3-4.1 0-1.6 3.7-7.1 13.5-19.9 8.7-11.5 30.5-28.2 36.6-28.2 2.8 0 7.5-2.6 8.3-4.5 1.9-5.1-1.8-11.5-6.7-11.5-4 0-7.7 3.6-7.7 7.6 0 2.4-.6 3.7-2.1 4.6-1.2.7-5.1 3.2-8.7 5.5-3.7 2.3-7 3.9-7.4 3.6-1.6-.9.4-15.6 2.3-18.2 2.6-3.3 2.4-6.7-.6-9.6-3.1-3.2-4.6-3.1-8.4.1-3.6 3-3.9 6.1-1.1 9.7 1.6 2 2 4 2 9.4 0 9.5-2 15.4-7.3 21.6-2.4 2.9-7.7 10.2-11.6 16.3l-7.1 11.1-4.7.7c-2.6.3-10.4.9-17.5 1.3-10.9.5-12.8.4-12.8-.9 0-.8 4.3-8.6 9.6-17.4 5.3-8.7 21.1-35 35.1-58.4 14.1-23.4 26.4-43.4 27.4-44.6 1.3-1.3 5.8-3 13.1-4.9 8.2-2.1 12-3.6 14.4-5.7 4.8-4.2 11.3-6.7 19.5-7.4 9.8-.8 14.6-2.1 15.3-4.1 1.2-3-1.6-4.6-6-3.4-5.3 1.4-15.7 1.7-16.1.5-.2-.5 1.7-3.8 4.2-7.2 4.6-6.3 9.1-9.7 18.2-13.9l5.2-2.4 8 4.1c4.4 2.2 8.5 4 9.1 4 2.2 0-2.4-5.8-6.2-8-2.1-1.2-3.8-2.4-3.8-2.7 0-.3 1.6-2.3 3.5-4.4 1.9-2.2 3.5-4.4 3.5-4.9 0-.6 1.5-1 3.3-1 6.9 0 10.1-7.7 5.2-12.5-3-3.1-5.8-3.2-8.6-.4-1.7 1.7-2 3.1-1.7 7.7.3 6.5 1.7 5.4-15.5 13.1-8.3 3.8-8.8 3.9-8.1 1.8 1.4-4.5 11.7-19.2 18.3-25.9 6.4-6.5 6.9-6.8 9.6-5.8 2.2.8 3.3.7 5.1-.5 4.7-3.1 4-10.8-1.1-12.1-3.4-.8-5.3 0-7.2 3.4-.9 1.6-4 4.5-6.9 6.6-6.1 4.2-16.1 17.1-22.6 28.9-4.9 8.8-23.9 38.1-27 41.4-2.1 2.2-16.1 6.3-17.4 5-1.3-1.3 15.4-29.7 33.1-56.3 16.6-25 21.5-33.5 26.7-46.3 4.5-11.2 6.8-14.2 17.5-22.3 3.5-2.6 7.7-7 9.5-9.7 1.8-2.8 4.3-5.2 5.5-5.5 5.4-1.4 7.4-9 3.1-12-3-2.1-5.1-2-7.9.3-1.8 1.5-2.3 2.8-2.2 6.1.2 3.8-.3 4.6-5.5 9.9-6.9 6.9-12.9 11.4-13.6 10.2-.7-1 2-25.7 3.5-32.3.8-3.5 2-5.4 4.5-7.3 5.8-4.5 4-11.5-3-11.5-4.2 0-6 2.1-5.9 6.8.1 2.1-.5 6.2-1.3 9.2-.8 3-1.9 13.1-2.5 22.5-1.1 18.3-2.4 23.8-9.6 39.5-4.6 10.1-12.5 23.1-13.8 22.7-.6-.3-1-9-1-25.7 0-22.6.2-25.6 1.8-27.6 2.5-3.3 2.2-7-.8-9-2-1.3-3.1-1.5-5-.6-3.8 1.7-4.5 4.1-2.8 9.2 1.3 3.8 1.5 8.5.9 31-.7 27.2-1.3 32.5-3.6 32.5-1.1 0-13.9-18.3-48.6-69.5-5.8-8.5-19.5-28.8-30.5-45l-20-29.5.4-5c.8-8.6 1.6-9.4 15.5-16 6.9-3.3 16.5-8.4 21.3-11.3 5.5-3.3 9.8-5.2 11.8-5.2 5.9 0 8.9-5.9 5.5-10.8-1.3-1.9-2.4-2.2-5.7-2-3.8.3-4.4.7-6.6 4.6-1.5 2.9-4.2 5.6-7.7 7.8-7.1 4.5-25.8 14.4-27.2 14.4-1.8 0-1.4-2 1.6-8.3 2.1-4.5 4.1-6.9 9.2-10.7 9.7-7.4 23.7-17.2 27.9-19.6 2.8-1.6 3.7-2.7 3.9-5.3.4-4.2-1.2-6.1-5.3-6.1-3.8 0-5.2 1.4-6.2 6.3-.7 3.1-2 4.4-10.6 10.1-5.5 3.6-10.1 6.6-10.3 6.6-1.2 0 0-3.6 4.1-11.8 3.5-7.2 4.9-9.3 7-9.8 2.3-.6 2.5-1 2.5-6.3l-.1-5.6-2 2.7c-1.1 1.6-2.7 2.8-3.4 2.8-1.7 0-3.7-10.8-2.4-13.2 2.5-4.8-.9-9-4.9-6.2-2.8 1.9-2.8 4.8-.1 6.6 2 1.3 2.2 2.2 2 10.7-.2 8.8-.5 9.9-4.3 17.5-4.4 8.7-9.3 20.3-16.5 38.6-2.5 6.3-4.9 11.9-5.4 12.5-1.2 1.2-2.8-.8-16.2-20.8-8.6-12.9-10.8-16.9-11.7-21.5-.6-3.1-1.7-7.8-2.5-10.4-.8-2.6-1.5-5.9-1.5-7.3 0-1.5 2.9-8.2 6.4-14.9 3.5-6.8 7.2-14.9 8.2-18 1.3-4 2.5-6.1 4-6.6 5.9-2.3 3.6-11-2.8-11-3.7 0-5.2 2.3-4.5 7.1.4 3-.1 5.5-1.9 9.7-4.5 10.6-12.9 26.2-14 26.2-.6 0-2.4-3-3.9-6.6-2.6-6-2.7-7-1.5-9.8.7-1.7 3-8.3 5.2-14.6 2.5-7.1 5.3-13.2 7.4-16 6-7.7 5.7-12.2-.8-12.8-4.6-.4-6.2 1.6-5.9 7.8.2 7-7.6 26.9-9.9 25.5-2-1.3-5.3-12.2-5.1-17.2.1-4-.3-5.5-1.7-6.5-1.1-.7-2.8-3.4-4-6.1-1.9-4.3-4.2-6.3-4.2-3.7zm39.8 111.1c4 5.7 18.7 27.2 53.7 78.9 12.4 18.4 29.4 43.4 37.6 55.5 8.3 12.1 18.9 27.7 23.6 34.7l8.5 12.6-9.4 15.9c-5.2 8.7-16.2 27-24.3 40.8-15 25.3-49.8 83.2-68.2 113.5-8.5 14-10.5 16.6-12.9 17.1-1.6.4-47.5.7-102 .8l-99.1.1-2-2.3c-1.2-1.2-4.8-5.8-8-10.3-3.2-4.5-14.7-20.4-25.5-35.5-10.9-15.1-24.8-34.4-31.1-42.9-6.2-8.5-16.6-22.9-23.2-32-6.5-9.1-14.2-19.7-17-23.5-2.8-3.9-8.3-11.5-12.2-17-3.8-5.5-9.5-13.5-12.6-17.9-3.1-4.3-5.7-8.5-5.7-9.3 0-.8 3.5-6 7.8-11.6s12.8-16.7 18.8-24.7c14.5-19.1 36.6-48 54.8-71.5 8-10.5 20.8-27.1 28.3-37 7.6-9.9 15.5-20.3 17.8-23.1 2.2-2.7 6-7.6 8.5-10.7l4.5-5.7H600l3.8 5.1z"/><path d="M431.3 379.8c-1.9.3-2.3 1-2.3 3.6 0 4 1.2 5.1 6.5 6.1 7.3 1.3 11.1 4 13.2 9.2 1.7 4.5 1.8 8.8 1.8 60.8 0 55 0 56.1-2.1 60.6-1.7 3.6-3.2 5.1-6.6 6.8-2.4 1.1-5.4 2.1-6.5 2.1-4.2 0-5.3 1.1-5.3 5.1v3.9l25.8.2c56.3.6 63.2.2 80.2-4.9 25.8-7.7 42.4-24.3 49.2-49.3 3.1-11.5 3.3-38.6.5-49.5-7.8-29.5-27.9-46.1-63.7-52.6-5.9-1.1-85-2.9-90.7-2.1zm84.1 13.7c20 5.2 33.2 15.4 41.6 32.1 4.6 9.4 6.2 16.6 6.7 31.9.9 25.7-3.8 40.7-16.7 52.9-9.1 8.6-19.7 13.8-32.4 16.1-12.7 2.3-27.2 1.8-33.9-1.3-8.3-3.7-8-1.4-8.5-65.7-.2-30.8 0-58.4.3-61.3.5-4.2 1.1-5.5 2.8-6.2 1.2-.5 8.6-.9 16.4-.9 12.1-.1 15.7.3 23.7 2.4zM605.2 172.1c.7 4.8 7.3 5 7.3.3 0-1.5-.9-2-3.8-2.2-3.5-.3-3.8-.1-3.5 1.9zM456.3 174c-5.3 2.1-4.7 9.4.9 11.4 6.8 2.4 11.3-7.6 4.8-10.9-1.6-.8-3-1.5-3.2-1.4-.2 0-1.3.4-2.5.9zM485.6 179.6c-2.2 2.1-2 3.1.9 5 3 2 5.5.6 5.5-3.1 0-3.5-3.8-4.6-6.4-1.9zM326.7 181.7c-1.4 1.3-.6 3.3 1.2 3.3 1.9 0 3.5-2.3 2.4-3.4-.8-.8-2.8-.8-3.6.1zM414.6 182.6c-2.1 2.1-2 4.7.2 6.7 2.6 2.4 4.9 2.1 6.8-.8 1.5-2.3 1.5-2.7 0-5-1.9-2.9-4.7-3.2-7-.9zM337.7 183.7c-1.5 1.4-.7 4.3 1.2 4.3 2.3 0 3.4-2.3 1.8-3.9-1.3-1.3-2.1-1.4-3-.4zM375.3 186.7c-1.9.7-1.6 5 .4 5.7 2.4 1 4.6-2.1 3.2-4.5-1-1.9-1.5-2.1-3.6-1.2zM291.2 198.2c-2.8 2.8-.1 7.5 3.7 6.3 1.1-.3 2.3-1.5 2.6-2.6 1.2-3.8-3.5-6.5-6.3-3.7zM425.6 198.6c-.4 1-.2 2.2.3 2.7 1.5 1.5 4.6.3 4.6-1.8 0-2.6-4-3.3-4.9-.9zM364.8 204.5c-2 4.5 3.8 7.9 6.2 3.6 1.3-2.5 1.3-2.7-.6-4.5-2.2-2.3-4.3-2-5.6.9zM615.3 209.1c-2.6.9-3.2 5.6-1.1 7.7 1.9 1.9 5.2 1.4 6.6-.9 2.5-4-1.1-8.5-5.5-6.8zM374 215c-4.3 4.3-1.1 12 5 12 5.8 0 8.9-6.8 5.4-11.8-2-2.9-7.6-3-10.4-.2zM665.4 214.3c-.8 2.1-.3 2.9 1.3 1.9.8-.5.9-1.3.3-2.2-.7-1.2-1-1.2-1.6.3zM631.4 216.5c-.8 2 1.3 4.5 3.2 3.8.8-.3 1.4-1.6 1.4-2.9 0-1.7-.6-2.4-2-2.4-1.1 0-2.3.7-2.6 1.5zM540 218.4c-2.9 3.6 1.3 9.2 5.8 7.5 2.5-.9 3.1-5.6 1-7.7-1.6-1.6-5.3-1.5-6.8.2zM274.5 222.5c-1.4 1.3-2.5 3.6-2.5 5 0 3.3 4.2 7.5 7.5 7.5 3.4 0 6.5-3.3 6.5-7 0-3.6-3.9-8-7-8-1.1 0-3.2 1.1-4.5 2.5zM440 221.6c-1 1.1-1 1.7 0 2.9 1.9 2.3 4 1.8 4-.9 0-2.9-2.4-4.1-4-2zM446.3 222.6c-.3.8 0 2.1.6 2.7 1 .9 1.6.8 2.7-.7.8-1.1 1.4-2.3 1.4-2.8 0-1.5-4.1-.8-4.7.8zM609.3 223.5c-5.1 2.2-6.1 8.9-2 13.2 3.5 3.9 9.8 2.9 12.3-1.9 2.2-4.2 1-8.5-2.9-10.9-3.7-2.2-3.3-2.2-7.4-.4zM454.2 224.2c-3.1 3.1 0 9.8 4.6 9.8 2.2 0 5.2-3.4 5.2-6.1 0-3.8-7-6.5-9.8-3.7zM515.5 225c-.8 2.7 1.2 5.2 3.9 4.8 1.6-.2 2.1-1 2.1-3.3 0-2.5-.4-3.1-2.7-3.3-1.9-.2-2.8.2-3.3 1.8zM552.6 227.3c-3.3 3.3-3.3 7.1-.1 10.2 4.8 4.9 12 1.8 11.8-5-.1-4.4-1.7-6.2-6-7.1-2.6-.5-3.7-.1-5.7 1.9zM436.9 234.1c-4.7 4.7.2 14.1 6.5 12.5 6.2-1.5 8.6-8.1 4.6-12.4-2.7-2.9-8.3-2.9-11.1-.1zM497.2 237c-2.4 2.3-2.8 4.7-1.1 8.3 2.6 5.6 10.8 5.3 12.8-.4 2.6-7.6-5.9-13.3-11.7-7.9zM692.8 235.7c-2.4.6-2.9 2.8-1.2 5.2 2.1 2.9 5.2 2.7 6.6-.5 1.1-2.2 1-2.8-.7-4-1-.8-2.1-1.3-2.4-1.3-.3.1-1.3.3-2.3.6zM323 238c0 1.5.5 2 1.8 1.8.9-.2 1.7-1 1.7-1.8s-.8-1.6-1.7-1.8c-1.3-.2-1.8.3-1.8 1.8zM318.1 241.9c-2.1 1.3.3 4.1 2.9 3.4 2.4-.6 2.6-2.8.4-3.7-1.9-.7-1.6-.8-3.3.3zM693.4 246.3c-1.8 1.2-4.6 3-6.4 4-2.5 1.4-3 2.1-2.1 3 .9.9 2.1.6 5.4-1 2.3-1.2 5.5-2.6 7-3.2 1.9-.7 2.7-1.7 2.5-2.8-.5-2.5-2.8-2.5-6.4 0zM307.5 250c-1.5 1.7-1.6 2.4-.7 4.5 1.6 3.5 6.4 3.5 8 0 1.5-3.2 1.5-3.1-.4-4.9-2.1-2.2-4.7-2-6.9.4zM466.4 250.4c-1.2 3.1 0 5.1 3.1 5.1 2.7 0 3-.3 3-3 0-2.5-.4-3-2.8-3.3-1.7-.2-2.9.2-3.3 1.2zM258.2 269.2c-1.7 1.7-1.5 4.7.4 5.5 2.3.9 5.1-2.3 3.8-4.4-1.4-2.2-2.7-2.6-4.2-1.1zM277.1 271.6c-2.6 3.3-2.6 5.5-.3 8.2 1.5 1.9 3.7 2.6 6.9 2.3 2.3-.2 4.3-3.3 4.3-6.5 0-6.4-7-8.9-10.9-4zM687.7 272.6c-1.1 1.2-.8 4.1.6 5.2 1.8 1.6 3.9-.1 3.5-2.9-.3-2.3-2.7-3.7-4.1-2.3zM697.2 275.2c-1.7 1.7-1.5 3.6.7 4.7 2.4 1.3 5.5-.8 4.9-3.5-.4-2.2-3.8-3-5.6-1.2zM726.7 276.8c-2 2.2-2.2 6.3-.5 8 3 3 9.8.1 9.8-4.1 0-2.3-3.5-5.7-5.8-5.7-1.1 0-2.6.8-3.5 1.8zM670.6 284.1c-5.3 4.1-1.8 12.9 5.1 12.9 1.3 0 3.5-1.1 4.8-2.5 3-3 3.2-6.4.4-9.9-2.5-3.2-6.6-3.4-10.3-.5zM242.5 288c-.8 1.4.3 3 2.1 3 .8 0 1.4-.9 1.4-2 0-2.1-2.4-2.8-3.5-1zM750 290c-2.7 2.7-2.5 5.6.5 7.6 5.7 3.8 10.9-4.1 5.3-8-2.9-2-3.4-2-5.8.4zM331.7 296.6c-.4.4-.7 1.7-.7 2.9 0 1.3-.7 2.8-1.5 3.5-2.4 2-1.9 6.7 1 8.6 5.2 3.4 9.3-1.9 6.2-8-.9-1.7-1.7-4-1.9-5-.3-2.1-2-3.1-3.1-2zM247.2 298.2c-.7.7-1.2 1.9-1.2 2.8 0 1.9 3 5 4.8 5 1.5 0 4.2-2.9 4.2-4.5 0-3.5-5.3-5.8-7.8-3.3zM238.4 299.5c-.7 1.8.3 3.5 2.1 3.5 1.5 0 2.8-2.7 1.9-4.1-.8-1.4-3.4-1.1-4 .6zM722.8 302.2c-2 1.6-2.4 3.5-1.5 7 1.3 4.8 7.4 4.9 9.5.2 1.6-3.4 1.5-4.1-.8-6.4-2.3-2.3-4.9-2.6-7.2-.8zM682.2 307.9c-.8.4-1.2 1.9-1 3.2.2 1.8.9 2.4 2.8 2.4 2.1 0 2.5-.5 2.5-3 0-3.1-1.9-4.2-4.3-2.6zM318.5 315c-.4.6-.3 1.6.3 2.2.6.6 1.2.6 1.7-.2.4-.6.3-1.6-.3-2.2-.6-.6-1.2-.6-1.7.2zM244.4 316.4c-1.1 2.8.1 5.1 2.5 5.1 3.2 0 4.9-2.8 3.2-4.9-1.7-2-5-2.1-5.7-.2zM735 317c0 2.3 3.5 2.8 4.3.6.7-1.8-.1-2.6-2.5-2.6-1.1 0-1.8.7-1.8 2zM669 320.5c0 .8.9 1.5 2 1.5s2-.7 2-1.5-.9-1.5-2-1.5-2 .7-2 1.5zM720.6 320.6c-.9.8-1.6 1.9-1.6 2.4 0 1 2.9 4 3.9 4 .4 0 1.6-.6 2.6-1.4 1.7-1.2 1.8-1.8.7-4-1.3-3-3.3-3.3-5.6-1zM281.6 324.6c-.8 2-.1 3 2.3 3.7 2.4.6 4.4-1.4 3.5-3.7-.8-2.1-5-2.1-5.8 0zM659.7 327c-2.1 1.7-2.7 3-2.7 6.1 0 5.2 2.7 7.9 8 7.9 10.5 0 10.9-13.5.4-15.6-2.1-.4-3.7 0-5.7 1.6zM681.7 326.2c-2.1 1.1-2.1 2.2-.2 4.2 2 2 4.5 1 4.5-1.9 0-2.7-1.9-3.7-4.3-2.3zM204 330.5c-2 2.5-.1 6.9 3.1 7.3 3.2.4 5.1-1.8 4.7-5.5-.2-2.3-.8-2.9-3.4-3.1-1.9-.2-3.6.3-4.4 1.3zM746.7 330.7c-2.6 2.6 1.2 8 4.7 6.7 3.8-1.4 2.7-7.4-1.3-7.4-1.5 0-3.1.3-3.4.7zM336.1 332c-2 1.2-.8 4.5 1.7 4.8 1.8.3 2.2-.1 2.2-2.1 0-2.7-1.9-4-3.9-2.7zM296.7 334.8c-3.1 3.4-1.6 8.3 3 9.7 4.5 1.3 8.5-6.9 5.1-10.3-1.8-1.8-6.3-1.4-8.1.6zM330.5 335c-.4.6-.3 1.6.3 2.2.6.6 1.2.6 1.7-.2.4-.6.3-1.6-.3-2.2-.6-.6-1.2-.6-1.7.2zM225.4 336.1c-.9 1.5 1.1 3.3 3 2.6.9-.4 1.3-1.3 1-2.2-.7-1.7-3-2-4-.4zM680.7 337c-3.4 2.7-3.5 6.3-.2 9.5 2.9 3 5.8 3.2 8.5.5 6-6-1.7-15.2-8.3-10zM314.7 342.1c-2.3 1.3-7.1 11.3-5.7 11.7.6.2 1 1 1 1.7 0 2.2 6.4 5.5 10.8 5.5 6.9 0 10.9-5.7 9-12.7-1.6-6-9.7-9.3-15.1-6.2zM741.8 343.7c-2.3 2.8-2.8 5.1-1.7 7.7 1.1 2.4 4.7 4.6 7.5 4.6 2.3 0 6.4-4.6 6.4-7.3 0-5.4-8.8-8.9-12.2-5zM211.5 344.2c-1.1.6-2.3 1.6-2.7 2.2-1.4 2.1-.8 7.3 1 8.9 3.7 3.3 10.4 1.4 11.3-3.3.6-3.1-1.2-7.1-3.7-8-3.1-1.2-3.4-1.2-5.9.2zM793.4 350.5c-.8 3.1 1.2 5.7 4 5.3 1.3-.2 2.2-1.2 2.4-2.6.7-4.9-5.2-7.4-6.4-2.7zM253.7 356.4c-.8 2 2 4.3 3.5 2.8 1.4-1.4.3-4.2-1.6-4.2-.7 0-1.6.6-1.9 1.4zM273.8 357.7c-5.5 3.5-6 12.4-1.1 16.3 9.3 7.3 21.8-5.5 14-14.5-2.9-3.4-9.1-4.3-12.9-1.8zM306.5 357c-.3.6.1.7.9.4 1.8-.7 2.1-1.4.7-1.4-.6 0-1.3.4-1.6 1zM696.3 362.1c-2.7 1-4 5.3-2.3 7.4.7.8 2.5 1.5 4 1.5 3.5 0 5.4-2.3 4.6-5.5-.8-3.1-3.4-4.5-6.3-3.4zM714.8 362.5c-5.8 3.2-5.3 12.6.9 15.1 3 1.3 3.8 1.3 6.7-.1 5.6-2.7 7.2-8.6 3.4-12.9-2.9-3.2-7.4-4.1-11-2.1zM259.6 363.5c-.8 2.2.3 4.3 2.7 5.1 2.5.8 4.7-1.8 4-4.6-.6-2.4-5.8-2.8-6.7-.5zM807.1 366.8c-.7 1.4-.6 2.4.4 3.8 1.8 2.5 5 .7 5-2.7 0-3.1-3.9-3.9-5.4-1.1zM815 374c0 2.3 2.5 2.7 3.3.6.7-1.6-.1-2.6-2-2.6-.7 0-1.3.9-1.3 2zM238.6 381.2c-2.2 3.1-2 8.1.3 10.2 4.6 4.2 12.1.9 12.1-5.3 0-4.5-2.6-7.1-7-7.1-2.9 0-4.3.6-5.4 2.2zM756.2 380.2c-1.7 1.7-1.5 3.5.5 4.2 2.1.8 3.6-.6 3.1-3-.4-2.2-2-2.8-3.6-1.2zM710.9 389.9c-4 4-3.9 8.2.1 12.3 2.7 2.7 3.6 3 7.3 2.5 5.2-.7 7.7-3.6 7.7-8.9 0-8.3-9.1-11.9-15.1-5.9zM795 389.7c-6 2.2-7.7 8.6-3.5 12.8 6 6.1 15.6 0 12.5-7.9-.7-2-5.8-5.9-7.2-5.5-.2 0-1 .3-1.8.6zM777 407.9c-2.3 4.4-.5 8.1 4 8.1 3.2 0 5-1.7 5-4.6 0-4.8-6.8-7.4-9-3.5zM207 409.5c-2.6 3.1 1.3 8.2 4.4 5.6 1.9-1.6 2.1-4.2.4-5.9-1.6-1.6-3.3-1.5-4.8.3zM799.2 414.7c-1.3 2.4.3 5.3 2.9 5.3 2.4 0 3.6-2.7 2.2-4.9-1.5-2.3-4-2.5-5.1-.4zM260.7 419.1c-2.9 1.7-4.6 6.7-3.6 10.3 2.7 9.7 16.9 8.2 16.9-1.8 0-4.8-.8-6.5-4.1-8.1-3.3-1.7-6.7-1.9-9.2-.4zM214.5 423c-1.5 1.6-1.7 2.6-.9 4.8.8 2.2 1.5 2.7 4.4 2.7 2.9 0 3.6-.5 4.4-2.7.8-2.2.6-3.2-.9-4.8-1-1.1-2.6-2-3.5-2-.9 0-2.5.9-3.5 2zM199.1 442.3c-2.8 2.8.5 8.1 3.7 6 2.4-1.5 2.1-5.4-.4-6.4-1.3-.4-2.6-.3-3.3.4zM178.2 451.3c-3.2 3.4-3 8.9.4 11.6 5.5 4.3 13.4.8 13.4-5.9 0-6.9-9.1-10.7-13.8-5.7zM807.9 466.6c-.9 1.1-1 2-.2 3.2 1.4 2.3 4.9 2.7 5.7.6 1.7-4.3-2.6-7.3-5.5-3.8zM789.4 471.7c-.8 3.2.6 5.7 3.5 6.1 2.8.4 5.1-1.4 5.1-4.2 0-3-1.8-4.6-5.2-4.6-2.2 0-2.9.6-3.4 2.7zM782.2 488.2c.2 1.2 1 2.3 1.8 2.3 2.2 0 1.9-3.9-.3-4.3-1.5-.3-1.8.1-1.5 2zM805.6 488.6c-.7 1.8 1 4.4 2.8 4.4 2.4 0 3.8-1.8 3.1-3.9-.8-2.5-5-2.9-5.9-.5zM765.6 495.9c-.8 1.3.3 3.8 1.9 4.5 1.8.6 3.9-2 3.1-3.9-.6-1.6-4.1-2.1-5-.6zM205.5 500.4c-1.6 1.2-1.7 1.6-.6 3 .7.9 2.2 1.6 3.3 1.6 1.5 0 1.9-.6 1.6-2.7-.4-3.2-1.7-3.8-4.3-1.9zM759.8 510.1c-3.5 2-1.9 7.9 2.1 7.9 4.8 0 6.8-4.2 3.5-7.4-1.8-1.8-3.2-2-5.6-.5zM193.1 512.9c-1.7 1.1-1.8 5.6-.1 7.6 1.8 2.1 5.4 1.9 7.5-.5 2.8-3 1-7.4-3-7.8-1.7-.1-3.6.2-4.4.7zM737.5 518.5c-5.7 5.6-1.6 15.5 6.4 15.5 5.9 0 9.6-3.5 9.6-9 0-3.4-.6-4.7-2.8-6.6-3.9-3.3-9.9-3.3-13.2.1zM176.2 522.2c-1.6 1.6-1.5 5.3.2 6.7.9.7 2.9.9 5.5.5 3.1-.5 4.1-1.1 4.1-2.6 0-1-.8-2.2-1.7-2.5-1-.4-2.4-1.3-3.1-2-1.7-1.6-3.4-1.7-5-.1zM298.3 523.7c-.7.3-1.3 1.3-1.3 2.4 0 2.3 3.5 2.6 4.3.5.7-1.7-1.3-3.5-3-2.9zM248.6 525.5c-1.4 3.8 3.1 6.6 5.9 3.5.8-.9 1.3-2.4.9-3.4-.8-2-6-2.2-6.8-.1zM757.9 526.6c-1.7 2.1 0 4.9 3.2 4.9 1.8 0 2.5-.6 2.7-2.4.6-3.8-3.4-5.5-5.9-2.5zM211.1 541.2c-4.6 4.8-3.8 10.1 1.6 10.6 4 .4 6.1-2 4.4-5.1-.6-1.2-1-3.3-.9-4.7.4-3.3-2.4-3.8-5.1-.8zM694.2 543.6c-1.5 1-2.2 2.5-2.2 4.8 0 3.7 1.5 5.6 4.5 5.6 4.7 0 7.3-7 3.9-10.4-1.9-2-3.4-2-6.2 0zM245.3 549.1c-1.3 1.3-.6 3.9 1.1 3.9 2.2 0 3.7-2.2 2.5-3.7-1.4-1.6-2.2-1.6-3.6-.2zM305.6 549.5c-.3.8.3 1.9 1.3 2.4 2.1 1.2 3.1.5 3.1-2.1 0-2.2-3.5-2.5-4.4-.3zM233.2 551.3c-1.6 1.9 1.1 5.8 2.8 4.1 1.4-1.4 1-4.6-.6-5.1-.6-.2-1.6.2-2.2 1zM309.3 557.6c-.7 1.8 1.1 3.9 2.6 3 1.7-1.1 1.3-4.6-.4-4.6-.9 0-1.8.7-2.2 1.6zM700.6 557.3c-2.6 1.9-1.2 3.7 3 3.7 3.1 0 3.5-.3 3.2-2.3-.4-2.6-3.5-3.4-6.2-1.4zM682.5 558.5c-.3.8-.7 2.1-.9 2.9-.7 2.2 2.3 5.6 5 5.6 3.3 0 5.2-4 3.6-7.5-.9-1.9-1.9-2.5-4.2-2.5-1.8 0-3.2.6-3.5 1.5zM776.2 562.2c-.7.7-1.2 2.1-1.2 3.3 0 1.2.5 2.6 1.2 3.3.7.7 2.1 1.2 3.3 1.2 1.2 0 2.6-.5 3.3-1.2.7-.7 1.2-2.1 1.2-3.3 0-1.2-.5-2.6-1.2-3.3-.7-.7-2.1-1.2-3.3-1.2-1.2 0-2.6.5-3.3 1.2zM759 565.5c0 2.2.4 2.6 2.3 2.3 1.4-.2 2.2-1 2.2-2.3 0-1.3-.8-2.1-2.2-2.3-1.9-.3-2.3.1-2.3 2.3zM700.6 566.6c-.8 2.1 1.1 4.4 3.5 4.4 2 0 3.9-2.8 3.2-4.8-.7-1.8-6-1.5-6.7.4zM258 578c0 3.7 2.8 5.4 6.4 4 1.8-.7 2.6-1.7 2.6-3.4 0-3.1-1.6-4.2-3.7-2.4-1.3 1-1.7 1-2 0-.9-2.5-3.3-1.2-3.3 1.8zM323.4 576c-5.8 2.3-7.1 10-2.6 14.3 3.6 3.4 8.1 3.6 11.9.3 2.3-2 2.8-3.2 2.7-6.7-.2-6.8-5.7-10.5-12-7.9zM737 586c0 1.1.7 2 1.5 2s1.5-.9 1.5-2-.7-2-1.5-2-1.5.9-1.5 2zM265.3 591c-2.1 3.2.6 6.7 4.1 5.4 1.6-.6 3.8-5.9 2.9-6.8-1.4-1.4-5.9-.5-7 1.4zM308.4 590.4c-1 2.5 0 5.1 2 5.4 2.7.6 4.8-2.5 3.5-4.9-1.2-2.2-4.7-2.5-5.5-.5zM284.2 595.7c-1.3 2.6-.4 4.3 2.3 4.3 2.7 0 4-2.6 2.4-4.6-1.6-1.9-3.7-1.7-4.7.3zM746.7 595.6c-.4.4-.7 1.6-.7 2.6 0 1.4.6 1.9 2.3 1.6 1.4-.2 2.2-1 2.2-2.3 0-2-2.5-3.2-3.8-1.9zM731 599.6c-3 .8-5.9 1.9-6.3 2.3-1.7 1.7.3 4.6 5.5 8.1 2.9 1.9 5.9 4.1 6.5 4.9 1.6 1.8 2.3 1.1 2.6-2.5.2-2.1-.6-3.3-3.3-5.1-1.9-1.3-3.6-2.8-3.8-3.2-.2-.5 1.5-1.6 3.8-2.5 4.1-1.6 5.4-3.7 2.3-3.5-1 0-4.3.7-7.3 1.5zM321.6 602.2c-2.1 3 0 6.3 4 6.3 2.2 0 3.1-.6 3.9-2.8.8-2.4.6-3.1-1-4.3-2.7-2-5.2-1.7-6.9.8zM708.8 612.7c-7.1 4.4-3.7 16.3 4.6 16.3 4.8 0 6.5-.8 8.1-4.1 2.4-4.5 1.9-7.8-1.6-11-3.5-3.3-7.1-3.7-11.1-1.2zM746 614.5c-1.1 1.3-1.1 1.9.3 3.2 2.1 2.1 4.9.9 4.5-1.9-.4-2.8-3-3.5-4.8-1.3zM269.4 619.5c-1.9 2.9-1.2 5.8 1.9 7.2 4.9 2.2 9.1-2.9 6.1-7.4-2-3.1-5.9-3-8 .2zM746.2 626.7c.4 2.2 4.3 2.5 4.3.3 0-.8-1.1-1.6-2.3-1.8-1.9-.3-2.3 0-2 1.5zM289.7 634.8c-5 5.5 2.1 12.4 7.3 7.2 2.4-2.4 2.5-3.8.4-6.8-1.8-2.7-5.5-2.9-7.7-.4zM750 639.7c0 2.9 1.6 4.5 4.1 4.1 1.8-.2 2.4-.9 2.4-2.8 0-2.1-.5-2.6-3.2-2.8-2.6-.3-3.3 0-3.3 1.5zM264.6 643.6c-3.9 3.9.1 10.6 5.2 8.8 2.1-.7 2.8-1.7 3-4.4.5-5.2-4.6-8-8.2-4.4zM380.9 652.9c-2 1.6-2.2 2.3-1.4 4.7.6 1.8 2.1 3.3 3.9 3.9 2.4.8 3.1.6 4.7-1.4 2.4-3 2.4-4.6-.1-7.1s-4.1-2.5-7.1-.1zM317 655c-1.8 1.1-.4 4.2 1.7 3.8 1-.2 1.9-1 2.1-1.9.4-1.9-1.9-3.1-3.8-1.9zM330.7 657c-3.5 2.8-3.7 7.7-.4 10.8 3 2.8 6.8 2.8 9.5-.1 6.2-6.5-2.1-16.2-9.1-10.7zM462.6 666.1c-5.1 4-2.5 11.9 4 11.9 3.7 0 5-.9 6.3-4.3 1.3-3.4-.2-7-3.6-8.6-3.2-1.5-3.6-1.4-6.7 1zM318.1 669.4c-1.6 1.9-1 6.6 1 7.9 2.6 1.6 6.8 0 7.5-2.9 1.2-4.7-5.5-8.7-8.5-5zM518.8 670.1c-2.6 1.5-2.3 6.4.4 8.3 2.9 2.1 5.1 2 7.1-.2 4.8-5.3-1.3-11.8-7.5-8.1zM743 673.1c-1 1.7-.9 2.4.3 3.7 2.3 2.2 4.9.8 4.5-2.5-.4-3.5-3.3-4.2-4.8-1.2zM398.2 681.3c-3.1 3.3-2.9 8 .4 10.6 1.5 1.2 3.4 2.1 4.4 2.1 3.4 0 7-3.9 7-7.5 0-2.4-.7-3.9-2.6-5.4-3.5-2.7-6.5-2.7-9.2.2zM484.7 680.8c-2.2 2.5-2.1 4.5.3 6.7 1.8 1.6 2.3 1.7 4.5.5 3.1-1.7 3.5-6.4.6-8-2.7-1.4-3.5-1.3-5.4.8zM558.9 684.1c-2.9 2.9-2.3 8.5 1.2 11.2 2.3 1.7 3.2 1.8 6.1.8 5.6-1.8 7.5-7.9 3.8-11.9-2.7-2.9-8.3-2.9-11.1-.1zM682.2 686.2c.2 1.6 1 2.1 3.6 2.2 3.7.1 3.7.2 1.5-2.4-2.4-2.8-5.5-2.7-5.1.2zM305.6 688.5c-2 2.1-2.1 4.9 0 6.9 2.1 2.2 4.7 2 7-.5 1.7-1.9 1.7-2.3.3-4.7-1.7-3.2-5-3.9-7.3-1.7zM583.6 689.1c-3.5 2.7-3.7 9-.4 11.3 7.9 5.6 17.1-4.2 10.3-10.9-3-3-6.4-3.2-9.9-.4zM713 694.5c-1.7 2-.8 4.9 1.6 5.3 3 .4 4.8-2.1 3.4-4.7-1.3-2.5-3.3-2.7-5-.6zM684.1 694.9c-1.2.8-1.3 1.2-.1 2.6 1.8 2.2 5.5 1.6 5.5-1 0-2.2-3.1-3.1-5.4-1.6zM364.8 698.1c-3.8 2.2-.5 7.9 3.6 6.3 1.9-.7 2.1-4.5.4-6.2-1.4-1.4-1.8-1.4-4-.1zM481.5 699c-.3.5-.3 1.9 0 3.1 1 3.1 6 2.3 6-1.1 0-2-.6-2.6-2.7-2.8-1.4-.2-2.9.2-3.3.8zM567.4 702.1c-1.7 1.9-1.7 2.3-.3 4.7 1.7 3.2 5 3.9 7.3 1.7 2-2.1 2.1-4.9 0-6.9-2.1-2.2-4.7-2-7 .5zM339.5 709c-1 1.7.5 4.9 2.5 5.5 2.5.8 4-.1 4-2.4 0-3.3-4.9-5.7-6.5-3.1zM356.4 709.1c-1 1.7 2.3 4.6 3.7 3.2.7-.7.9-1.9.6-2.7-.7-1.8-3.3-2.1-4.3-.5zM586.9 713.1c-1.8 1.8-1.9 2.3-.6 4.2 1.8 2.8 4 3.2 6.1 1.2 2-2.1 2-3.9 0-5.9-2-2.1-3-2-5.5.5zM391.2 719.6c-1.6 1.1-2.7 1.2-4.1.4-1.1-.5-2.4-1-3-1-1.9 0-1.2 4.6.9 6.5 2.6 2.4 6.8 1.1 9-2.7 1.9-3.6.4-5.4-2.8-3.2zM667 719.4c-2 2.6-.8 6.1 2.2 6.4 2.2.3 2.9-.2 3.4-2.2 1.1-4.4-2.9-7.4-5.6-4.2zM632 728.5c-2.6 3.2 1.3 8.1 4.8 5.9 3.4-2.2 2.2-7.4-1.8-7.4-1 0-2.3.7-3 1.5zM557.8 736.1c-2.1 1.2-2.4 6.9-.6 8.7.7.7 2.6 1.2 4.3 1.2 3.8 0 5.5-1.6 5.5-5 0-4.8-5-7.4-9.2-4.9zM507 741.5c-1.8 2.1-.5 4.7 2.2 4.3 2.6-.3 3.7-3.6 1.6-4.9-1.8-1.2-2.4-1.1-3.8.6zM427.2 743.2c-3.4 3.4.6 9 4.8 6.8 2.5-1.3 2.8-6.5.4-7.4-2.4-.9-3.9-.7-5.2.6zM407.8 745.6c-1.1 2.3-1 2.9 1.1 4.5 1.3 1.1 2.7 1.9 3.1 1.9 1.3 0 4-3 4-4.5 0-2-2.8-4.5-5.1-4.5-1.1 0-2.4 1.1-3.1 2.6zM452.5 753c-.8 1.4.3 3 2.1 3 .8 0 1.4-.9 1.4-2 0-2.1-2.4-2.8-3.5-1zM493.8 753.1c-2.1 1.2-2.4 5.9-.6 7.7.7.7 2.4 1.2 3.8 1.2 5 0 6.6-4.4 3-8-2.2-2.2-3.7-2.4-6.2-.9zM462.8 759.8c-.9.9-2.4 2.3-3.3 3-1 .9-1.5 2.5-1.3 4.5.2 2.6.7 3.1 2.3 2.9 1.1-.2 2.9-.3 4-.3 3.2 0 6.5-2.7 6.5-5.4 0-1.5-1.1-3.1-2.9-4.4-3.4-2.4-3.1-2.4-5.3-.3zM606.1 829.5c-10.6 3-19.6 11.9-24 23.8-1.8 4.6-2.5 9.1-2.9 17.4-.8 18.7 2.2 32.4 9.2 41.5 5.8 7.7 20.9 13.5 32.1 12.5 11.3-1.1 16.3-3.3 23-10 9.2-9.2 12.5-19.3 12.5-38.1 0-11.6-2.7-24.8-6.5-31.1-3.2-5.5-10.6-12.2-16.3-14.7-6.1-2.7-19.7-3.4-27.1-1.3zm21.6 10.6c4.7 1.5 11.4 9.5 13.8 16.5 2.8 8.2 2.9 31.1.1 39.8-3.6 11.5-12.3 18-24.1 18-9.9 0-16.3-3.7-21.8-12.6-5.2-8.4-6.2-33.7-1.7-46.4 4.9-14.2 18-20.1 33.7-15.3zM326.5 829.7l-6 .4-15.3 45.7c-8.4 25.1-15.3 46-15.3 46.4.1.5 2.7.8 5.9.8h5.8l2.8-9.8c1.6-5.3 3.4-11.2 4.2-13l1.3-3.2h17.8c9.8 0 18.4.4 19.1.9.8.4 3 6.2 5.1 12.7l3.8 11.9 6.1.3c3.4.2 6.2 0 6.2-.4 0-.3-3.1-9.5-6.9-20.3-3.8-10.8-8.5-24.3-10.4-30.1-10.7-32-15.5-43.6-17.7-42.8-.3.1-3.2.3-6.5.5zm10 34.3c4.1 12.2 7.2 22.6 6.9 23.1-.3.5-7.2.9-15.5.9-11.7 0-14.9-.3-14.9-1.3 0-1.5 13.6-43.3 14.6-44.9.3-.5.8-.7 1.1-.5.2.3 3.8 10.5 7.8 22.7zM430.2 829.8c-1 .7-1.2 10.7-1 46.8l.3 45.9h10.8l-.2-39.3c-.2-28.5.1-39.2.9-39.2.6 0 2.7 3.5 4.6 7.7 5.7 12.5 6.4 14 13.9 29.8 3.9 8.2 7.4 15.6 7.8 16.2.9 1.4 6.5 1.7 8.2.5.6-.4 2.7-4.3 4.7-8.7 2-4.4 7.2-15.4 11.6-24.5 4.4-9.1 8.3-17.5 8.7-18.8.3-1.2 1.3-2.2 2.2-2.2 1.3 0 1.4 4.7 1.2 39.2l-.3 39.3h10.9l.3-44.5c.1-24.5 0-45.5-.3-46.8-.5-2-1.1-2.2-7.8-2.2-3.9 0-7.7.4-8.3.8-.6.4-1.7 2.3-2.5 4.3-3.4 8.6-23.4 48.9-24.1 48.7-.7-.3-4.7-8.4-21.3-43.4-2.4-5-5.1-9.4-6-9.8-2.4-.9-12.7-.7-14.3.2zM717.7 829.7c-.4.3-.7 21.5-.7 47V923h11v-40.7c0-34.8.2-40.5 1.4-39.3.7.8 4.4 7.6 8.1 15 3.8 7.4 11.2 21.4 16.5 31 5.3 9.6 11 20 12.5 23 5.7 10.9 5.8 11 13.1 11h6.4l-.2-46.8-.3-46.7h-10l-.3 37.2c-.1 20.5-.6 37.3-1.1 37.3-.4 0-4.3-6.9-8.6-15.3-8.8-17.1-30.5-58-31.1-58.6-.7-.7-16-1.1-16.7-.4zM850 829.8c-.6.2-1 17-1 46.8V923h18.3c23.5 0 29.8-1.6 38.7-9.6 4.7-4.3 8.3-10.1 10.3-17.1 3.6-12 3-32.1-1.3-43.5-4.1-10.9-14.3-19.2-26.7-21.8-4.5-.9-36.2-1.9-38.3-1.2zm28.5 10.6c9.7.6 13.5 2 18.8 6.6 7.3 6.4 9.1 12.3 9.2 29.5 0 13.3-.1 14.3-2.8 20-3.5 7.4-5.9 10-12.1 13.2-6.1 3.1-25.1 5.3-29.2 3.5L860 912v-35.3c0-23.3.4-35.7 1-36.3.6-.6 3.2-1 5.8-.8 2.6.2 7.9.6 11.7.8zM71.8 872.1c-.2 23.2-.1 44.1.1 46.5l.3 4.4h17.7c18.5-.1 23.3-.7 30.7-4.1 15.3-7.2 23.2-26.9 20.6-50.8-2.1-18.4-9.6-29.9-23-35.2-5.1-2.1-7.8-2.3-25.9-2.7l-20.3-.4-.2 42.3zm39.1-30.5c7.2 2.1 13.4 7.9 16.2 15.2 1.5 4.1 2.3 8.9 2.6 16.8.5 9.6.3 12.2-1.6 18.4-2.9 9.5-10 17-18.2 19.4-5.6 1.6-23.7 2.4-25.8 1.2-1.2-.8-1.7-70.7-.4-71.9 1.3-1.4 21.9-.7 27.2.9zM194 834.5v4.5h14v75h-14v9h38.8l.4-2.8c.8-5.6.2-6.2-6.3-6.2-3.9 0-6.1-.4-6.4-1.3-.7-1.8-1.2-71.6-.5-72.7.3-.5 3.5-1 7-1.2l6.5-.3v-8l-19.7-.3-19.8-.2v4.5z"/></svg>