<svg width="35" height="33" viewBox="0 0 35 33" fill="none" xmlns="http://www.w3.org/2000/svg">
<path d="M17.5 16.5C19.0143 16.5 20.4945 16.0766 21.7536 15.2834C23.0126 14.4902 23.994 13.3628 24.5735 12.0437C25.1529 10.7247 25.3046 9.27324 25.0091 7.87294C24.7137 6.47264 23.9845 5.18638 22.9138 4.17682C21.843 3.16726 20.4788 2.47974 18.9937 2.20121C17.5085 1.92267 15.9691 2.06562 14.5701 2.61199C13.1711 3.15836 11.9753 4.08361 11.1341 5.27073C10.2928 6.45784 9.84375 7.85352 9.84375 9.28125C9.84375 11.1958 10.6504 13.0319 12.0862 14.3857C13.522 15.7395 15.4694 16.5 17.5 16.5ZM17.5 4.125C18.5816 4.125 19.6389 4.42741 20.5383 4.99398C21.4376 5.56056 22.1385 6.36586 22.5525 7.30804C22.9664 8.25022 23.0747 9.28697 22.8637 10.2872C22.6527 11.2874 22.1318 12.2062 21.367 12.9273C20.6022 13.6484 19.6277 14.1395 18.5669 14.3384C17.5061 14.5374 16.4065 14.4353 15.4072 14.045C14.4079 13.6547 13.5538 12.9938 12.9529 12.1459C12.352 11.298 12.0312 10.3011 12.0312 9.28125C12.0313 7.91373 12.6074 6.60221 13.633 5.63523C14.6586 4.66825 16.0496 4.125 17.5 4.125Z" fill="black"/>
<path d="M18.5938 18.5625H16.4062C13.2154 18.5625 10.1552 19.7576 7.89887 21.885C5.64257 24.0124 4.375 26.8977 4.375 29.9062C4.375 30.1798 4.49023 30.4421 4.69535 30.6355C4.90047 30.8289 5.17867 30.9375 5.46875 30.9375H29.5312C29.8213 30.9375 30.0995 30.8289 30.3046 30.6355C30.5098 30.4421 30.625 30.1798 30.625 29.9062C30.625 26.8977 29.3574 24.0124 27.1011 21.885C24.8448 19.7576 21.7846 18.5625 18.5938 18.5625ZM6.62812 28.875C6.89707 26.6069 8.0429 24.5118 9.84668 22.9899C11.6505 21.468 13.9857 20.6261 16.4062 20.625H18.5938C21.0143 20.6261 23.3495 21.468 25.1533 22.9899C26.9571 24.5118 28.1029 26.6069 28.3719 28.875H6.62812Z" fill="black"/>
</svg>
